<svg xmlns="http://www.w3.org/2000/svg" version="1.1" xmlns:xlink="http://www.w3.org/1999/xlink" xmlns:svgjs="http://svgjs.dev/svgjs" width="1500" height="344" viewBox="0 0 1500 344"><g transform="matrix(1,0,0,1,-0.9090909090909918,0.023505779633637758)"><svg viewBox="0 0 396 91" data-background-color="#ffffff" preserveAspectRatio="xMidYMid meet" height="344" width="1500" xmlns="http://www.w3.org/2000/svg" xmlns:xlink="http://www.w3.org/1999/xlink"><g id="tight-bounds" transform="matrix(1,0,0,1,0.2400000000000091,-0.006218098682154505)"><svg viewBox="0 0 395.52 91.01243619736431" height="91.01243619736431" width="395.52"><g><svg viewBox="0 0 507.13456324855304 116.69587399154821" height="91.01243619736431" width="395.52"><g><svg viewBox="0 0 395.52 116.69587399154821" height="116.69587399154821" width="395.52"><g id="textblocktransform"><svg viewBox="0 0 395.52 116.69587399154821" height="116.69587399154821" width="395.52" id="textblock"><g><svg viewBox="0 0 395.52 116.69587399154821" height="116.69587399154821" width="395.52"><g transform="matrix(1,0,0,1,0,0)"><svg width="395.52" viewBox="0.35 -37.65 130.14000000000001 38.4" height="116.69587399154821" data-palette-color="#000000"><path d="M11.75-35.25Q14.75-35.25 17.05-34.2 19.35-33.15 21.3-31.05L21.3-31.05 18.35-27.65Q16.8-29.05 15.33-29.75 13.85-30.45 12.2-30.45L12.2-30.45Q10.3-30.45 9.2-29.28 8.1-28.1 8.1-26.2L8.1-26.2Q8.1-24.3 9.25-23.1 10.4-21.9 13.75-20.6L13.75-20.6Q18.05-18.85 20.08-16.5 22.1-14.15 22.1-9.85L22.1-9.85Q22.1-6.9 20.75-4.48 19.4-2.05 16.88-0.65 14.35 0.75 11 0.75L11 0.75Q7.55 0.75 5-0.48 2.45-1.7 0.35-3.95L0.35-3.95 3.55-7.45Q5.35-5.85 7-5 8.65-4.15 10.6-4.15L10.6-4.15Q12.9-4.15 14.18-5.58 15.45-7 15.45-9.45L15.45-9.45Q15.45-11.6 14.33-12.98 13.2-14.35 10.15-15.5L10.15-15.5Q5.55-17.35 3.53-19.75 1.5-22.15 1.5-25.75L1.5-25.75Q1.5-28.5 2.83-30.65 4.15-32.8 6.5-34.02 8.85-35.25 11.75-35.25L11.75-35.25ZM43-6.4Q43-5.1 43.35-4.48 43.7-3.85 44.5-3.45L44.5-3.45 43.25 0.65Q41.2 0.4 39.97-0.45 38.75-1.3 38.15-3.05L38.15-3.05Q35.85 0.75 31.7 0.75L31.7 0.75Q28.4 0.75 26.45-1.48 24.5-3.7 24.5-7.4L24.5-7.4Q24.5-11.7 27.17-13.95 29.85-16.2 34.95-16.2L34.95-16.2 37-16.2 37-18.05Q37-20.55 36.12-21.58 35.25-22.6 33.3-22.6L33.3-22.6Q30.95-22.6 27.45-21.3L27.45-21.3 26.05-25.3Q28.05-26.2 30.2-26.68 32.35-27.15 34.3-27.15L34.3-27.15Q43-27.15 43-18.35L43-18.35 43-6.4ZM33.35-3.7Q35.75-3.7 37-7L37-7 37-12.55 35.55-12.55Q33-12.55 31.82-11.4 30.65-10.25 30.65-7.85L30.65-7.85Q30.65-5.8 31.35-4.75 32.05-3.7 33.35-3.7L33.35-3.7ZM60.45-27.1Q61.6-27.1 62.5-26.75L62.5-26.75 61.5-20.85Q60.5-21.1 59.65-21.1L59.65-21.1Q57.75-21.1 56.65-19.45 55.55-17.8 54.95-14.55L54.95-14.55 54.95 0 48.8 0 48.8-26.45 54.15-26.45 54.6-21.85Q56.45-27.1 60.45-27.1L60.45-27.1ZM82.24-6.4Q82.24-5.1 82.59-4.48 82.94-3.85 83.74-3.45L83.74-3.45 82.49 0.65Q80.44 0.4 79.22-0.45 77.99-1.3 77.39-3.05L77.39-3.05Q75.09 0.75 70.94 0.75L70.94 0.75Q67.64 0.75 65.69-1.48 63.74-3.7 63.74-7.4L63.74-7.4Q63.74-11.7 66.42-13.95 69.09-16.2 74.19-16.2L74.19-16.2 76.24-16.2 76.24-18.05Q76.24-20.55 75.37-21.58 74.49-22.6 72.54-22.6L72.54-22.6Q70.19-22.6 66.69-21.3L66.69-21.3 65.29-25.3Q67.29-26.2 69.44-26.68 71.59-27.15 73.54-27.15L73.54-27.15Q82.24-27.15 82.24-18.35L82.24-18.35 82.24-6.4ZM72.59-3.7Q74.99-3.7 76.24-7L76.24-7 76.24-12.55 74.79-12.55Q72.24-12.55 71.07-11.4 69.89-10.25 69.89-7.85L69.89-7.85Q69.89-5.8 70.59-4.75 71.29-3.7 72.59-3.7L72.59-3.7ZM100.39-27.15Q103.24-27.15 104.89-25.1 106.54-23.05 106.54-19.6L106.54-19.6 106.54 0 100.39 0 100.39-18.9Q100.39-20.8 99.87-21.63 99.34-22.45 98.34-22.45L98.34-22.45Q96.24-22.45 94.19-18.5L94.19-18.5 94.19 0 88.04 0 88.04-37 94.19-37.65 94.19-23.3Q95.44-25.25 96.92-26.2 98.39-27.15 100.39-27.15L100.39-27.15ZM128.99-6.4Q128.99-5.1 129.34-4.48 129.69-3.85 130.49-3.45L130.49-3.45 129.24 0.65Q127.19 0.4 125.96-0.45 124.74-1.3 124.14-3.05L124.14-3.05Q121.84 0.75 117.69 0.75L117.69 0.75Q114.39 0.75 112.44-1.48 110.49-3.7 110.49-7.4L110.49-7.4Q110.49-11.7 113.16-13.95 115.84-16.2 120.94-16.2L120.94-16.2 122.99-16.2 122.99-18.05Q122.99-20.55 122.11-21.58 121.24-22.6 119.29-22.6L119.29-22.6Q116.94-22.6 113.44-21.3L113.44-21.3 112.04-25.3Q114.04-26.2 116.19-26.68 118.34-27.15 120.29-27.15L120.29-27.15Q128.99-27.15 128.99-18.35L128.99-18.35 128.99-6.4ZM119.34-3.7Q121.74-3.7 122.99-7L122.99-7 122.99-12.55 121.54-12.55Q118.99-12.55 117.81-11.4 116.64-10.25 116.64-7.85L116.64-7.85Q116.64-5.8 117.34-4.75 118.04-3.7 119.34-3.7L119.34-3.7Z" opacity="1" transform="matrix(1,0,0,1,0,0)" fill="#000000" class="wordmark-text-0" data-fill-palette-color="primary" id="text-0"></path></svg></g></svg></g></svg></g></svg></g><g transform="matrix(1,0,0,1,423.06909514842874,1.902142746062232)"><svg viewBox="0 0 84.06546810012429 112.89158849942375" height="112.89158849942375" width="84.06546810012429"><g><svg xmlns="http://www.w3.org/2000/svg" xmlns:xlink="http://www.w3.org/1999/xlink" version="1.1" x="0" y="0" viewBox="17.10196143945771 7.201 65.4940385605423 87.95200000000001" enable-background="new 0 0 100 100" xml:space="preserve" height="112.89158849942375" width="84.06546810012429" class="icon-icon-0" data-fill-palette-color="accent" id="icon-0"><circle cx="42.026" cy="37.087" r="4.8" fill="#000000" data-fill-palette-color="accent"></circle><circle cx="57.974" cy="37.087" r="4.8" fill="#000000" data-fill-palette-color="accent"></circle><path fill-rule="evenodd" clip-rule="evenodd" d="M68.847 15.276H33.492L17.123 7.201V82.058S16.032 95.153 29.563 95.153H67.974S82.596 93.845 82.596 79.658V7.201zM35.769 47.994C29.566 47.994 24.537 42.966 24.537 36.763S29.566 25.532 35.769 25.532C41.971 25.531 47 30.559 47 36.762S41.971 47.994 35.769 47.994M51.839 53.52L49.85 57.78 47.86 53.52 45.87 49.262H53.829zM64.216 47.994C58.013 47.994 52.985 42.966 52.985 36.763S58.013 25.532 64.216 25.532 75.447 30.56 75.447 36.763 70.419 47.994 64.216 47.994" fill="#000000" data-fill-palette-color="accent"></path></svg></g></svg></g></svg></g><defs></defs></svg><rect width="395.52" height="91.01243619736431" fill="none" stroke="none" visibility="hidden"></rect></g></svg></g></svg>